<svg xmlns="http://www.w3.org/2000/svg" xmlns:xlink="http://www.w3.org/1999/xlink" width="700" height="500">
<defs>
<style type="text/css"><![CDATA[
  .borderLine {
	   stroke: none;
	   fill-opacity:  0.4 ;
  }
  .outLine {
	   stroke-width:  1 ;
	   fill: none;
  }
  .circle {
	   stroke: #888888;
	   stroke-width: 0.5;
	   fill: none;
    pointer-events: all;
  }
  .nLabel {
	   font-family: Arial;
    pointer-events: none;
	   font-size: 10px;
	   text-anchor: middle;
	   alignment-baseline: central;
  }
  .belong {
	   font-family: Arial;
    pointer-events: none;
	   font-size: 5px;
	   text-anchor: middle;
	   alignment-baseline: central;
  }
  .legend {
    font-family: Arial;
    font-size: 15px;
  }
  #legendBox {
    display:  inline ;
  }
  .p0{
    stroke: none;
    fill: #e6194b;
  }
  .q0{
    fill: none;
    stroke: #e6194b;
  }
  .p1{
    stroke: none;
    fill: #3cb44b;
  }
  .q1{
    fill: none;
    stroke: #3cb44b;
  }
  .p2{
    stroke: none;
    fill: #ffe119;
  }
  .q2{
    fill: none;
    stroke: #ffe119;
  }
  .p3{
    stroke: none;
    fill: #0082c8;
  }
  .q3{
    fill: none;
    stroke: #0082c8;
  }
  .p4{
    stroke: none;
    fill: #f58231;
  }
  .q4{
    fill: none;
    stroke: #f58231;
  }
  .p5{
    stroke: none;
    fill: #911eb4;
  }
  .q5{
    fill: none;
    stroke: #911eb4;
  }
]]>
</style>
<symbol id="bl0">
<path d="M 351.55 265.28 L 349.85 265.75 L 348.14 266.21 L 346.43 266.67 L 344.72 267.13 L 343.02 267.59 L 341.32 268.04 L 339.62 268.50 L 337.94 268.94 L 336.26 269.38 L 334.60 269.81 L 332.96 270.22 L 331.35 270.62 L 329.77 271.00 L 328.23 271.37 L 326.71 271.73 L 325.22 272.08 L 323.74 272.42 L 322.28 272.75 L 320.82 273.09 L 319.36 273.42 L 317.88 273.76 L 316.40 274.09 L 314.91 274.43 L 313.40 274.77 L 311.88 275.10 L 310.35 275.44 L 308.80 275.77 L 307.24 276.10 L 305.66 276.42 L 304.07 276.74 L 302.46 277.05 L 300.84 277.36 L 299.21 277.66 L 297.56 277.96 L 295.90 278.26 L 294.23 278.57 L 292.55 278.87 L 290.86 279.18 L 289.15 279.49 L 287.44 279.80 L 285.72 280.11 L 283.99 280.43 L 282.25 280.74 L 280.52 281.06 L 278.79 281.37 L 277.07 281.69 L 275.36 281.99 L 273.67 282.29 L 272.00 282.59 L 270.35 282.88 L 268.72 283.16 L 267.11 283.43 L 265.51 283.70 L 263.92 283.96 L 262.33 284.20 L 260.73 284.44 L 259.14 284.65 L 257.53 284.84 L 255.93 285.01 L 254.33 285.15 L 252.72 285.26 L 251.12 285.34 L 249.51 285.39 L 247.90 285.40 L 246.27 285.38 L 244.62 285.34 L 242.95 285.28 L 241.26 285.19 L 239.55 285.09 L 237.82 284.98 L 236.08 284.86 L 234.32 284.73 L 232.57 284.60 L 230.81 284.46 L 229.05 284.32 L 227.29 284.18 L 225.53 284.03 L 223.77 283.88 L 222.01 283.72 L 220.25 283.57 L 218.49 283.41 L 216.73 283.25 L 214.96 283.09 L 213.20 282.93 L 211.43 282.77 L 209.66 282.61 L 207.88 282.45 L 206.10 282.29 L 204.32 282.13 L 202.54 281.97 L 200.75 281.80 L 198.97 281.64 L 197.18 281.47 L 195.40 281.30 L 193.61 281.12 L 191.83 280.95 L 190.05 280.78 L 188.27 280.61 L 186.49 280.44 L 184.72 280.28 L 182.96 280.12 L 181.21 279.96 L 179.48 279.80 L 177.78 279.65 L 176.10 279.51 L 174.46 279.36 L 172.86 279.22 L 171.29 279.08 L 169.75 278.94 L 168.23 278.80 L 166.72 278.67 L 165.22 278.53 L 163.70 278.38 L 162.16 278.24 L 160.60 278.09 L 159.00 277.93 L 157.36 277.78 L 155.70 277.62 L 154.01 277.45 L 152.29 277.29 L 150.56 277.14 L 148.81 276.98 L 147.06 276.84 L 145.30 276.70 L 143.53 276.57 L 141.76 276.45 L 140.00 276.33 L 138.23 276.23 L 136.45 276.14 L 134.68 276.05 L 132.91 275.97 L 131.14 275.90 L 129.37 275.83 L 127.59 275.76 L 125.82 275.69 L 124.05 275.63 L 122.28 275.56 L 120.52 275.50 L 118.75 275.43 L 116.99 275.36 L 115.23 275.29 L 113.48 275.21 L 111.73 275.14 L 109.98 275.06 L 108.23 274.98 L 106.49 274.90 L 104.76 274.81 L 103.03 274.73 L 101.30 274.64 L 99.58 274.55 L 97.87 274.45 L 96.16 274.35 L 94.45 274.26 L 92.76 274.15 L 91.07 274.05 L 89.38 273.95 L 87.70 273.84 L 86.03 273.74 L 84.37 273.63 L 82.72 273.52 L 81.07 273.41 L 79.43 273.30 L 77.80 273.18 L 76.18 273.07 L 74.57 272.95 L 72.97 272.83 L 71.38 272.71 L 69.79 272.59 L 68.22 272.46 L 66.66 272.34 L 65.11 272.21 L 63.57 272.07 L 62.04 271.94 L 60.53 271.80 L 59.02 271.66 L 57.52 271.52 L 56.02 271.38 L 54.52 271.24 L 53.01 271.09 L 51.49 270.95 L 49.94 270.79 L 48.37 270.63 L 46.76 270.47 L 45.12 270.29 L 43.44 270.10 L 41.73 269.90 L 39.99 269.69 L 38.25 269.45 L 36.50 269.20 L 34.76 268.93 L 33.04 268.63 L 31.34 268.31 L 29.67 267.96 L 28.02 267.59 L 26.40 267.18 L 24.79 266.74 L 23.19 266.26 L 21.61 265.75 L 20.04 265.19 L 18.50 264.59 L 17.00 263.94 L 15.57 263.26 L 14.24 262.53 L 13.04 261.76 L 12.00 260.97 L 11.15 260.14 L 10.53 259.30 L 10.14 258.44 L 10.00 257.57 L 10.12 256.70 L 10.49 255.82 L 11.10 254.95 L 11.94 254.09 L 12.98 253.25 L 14.20 252.43 L 15.56 251.64 L 17.02 250.89 L 18.57 250.17 L 20.16 249.50 L 21.79 248.88 L 23.43 248.29 L 25.08 247.75 L 26.73 247.25 L 28.37 246.79 L 30.01 246.36 L 31.64 245.97 L 33.25 245.61 L 34.84 245.29 L 36.42 244.99 L 37.96 244.71 L 39.49 244.46 L 41.01 244.22 L 42.51 244.00 L 44.01 243.79 L 45.52 243.58 L 47.03 243.37 L 48.56 243.16 L 50.10 242.95 L 51.66 242.74 L 53.23 242.52 L 54.82 242.30 L 56.42 242.08 L 58.03 241.86 L 59.64 241.64 L 61.25 241.42 L 62.85 241.20 L 64.44 240.98 L 66.01 240.77 L 67.55 240.57 L 69.06 240.36 L 70.55 240.17 L 72.01 239.98 L 73.45 239.79 L 74.88 239.61 L 76.29 239.43 L 77.70 239.26 L 79.11 239.08 L 80.52 238.91 L 81.93 238.74 L 83.35 238.58 L 84.77 238.41 L 86.20 238.25 L 87.63 238.09 L 89.07 237.93 L 90.52 237.76 L 91.97 237.60 L 93.43 237.44 L 94.89 237.29 L 96.36 237.13 L 97.83 236.97 L 99.31 236.81 L 100.79 236.66 L 102.27 236.50 L 103.76 236.35 L 105.25 236.20 L 106.74 236.04 L 108.23 235.88 L 109.72 235.72 L 111.20 235.54 L 112.67 235.36 L 114.13 235.16 L 115.59 234.96 L 117.02 234.73 L 118.45 234.50 L 119.87 234.26 L 121.28 234.00 L 122.69 233.75 L 124.09 233.49 L 125.49 233.22 L 126.88 232.95 L 128.28 232.68 L 129.68 232.41 L 131.08 232.14 L 132.49 231.86 L 133.90 231.59 L 135.31 231.31 L 136.72 231.03 L 138.14 230.74 L 139.56 230.45 L 140.98 230.16 L 142.40 229.86 L 143.83 229.55 L 145.26 229.22 L 146.68 228.88 L 148.10 228.52 L 149.50 228.12 L 150.89 227.69 L 152.26 227.22 L 153.61 226.69 L 154.92 226.11 L 156.20 225.47 L 157.44 224.77 L 158.65 224.00 L 159.82 223.17 L 160.95 222.28 L 162.05 221.33 L 163.12 220.33 L 164.17 219.29 L 165.20 218.21 L 166.21 217.10 L 167.20 215.96 L 168.16 214.79 L 169.09 213.60 L 169.99 212.38 L 170.84 211.13 L 171.64 209.86 L 172.38 208.57 L 173.06 207.26 L 173.68 205.94 L 174.26 204.62 L 174.80 203.30 L 175.32 202.01 L 175.82 200.75 L 176.33 199.54 L 176.84 198.39 L 177.36 197.28 L 177.86 196.20 L 178.52 195.26 L 179.41 194.63 L 180.47 194.35 L 181.59 194.52 L 182.64 195.10 L 183.54 195.95 L 184.42 196.83 L 185.29 197.75 L 186.13 198.74 L 186.94 199.78 L 187.73 200.88 L 188.50 202.03 L 189.27 203.20 L 190.06 204.39 L 190.88 205.58 L 191.75 206.74 L 192.67 207.86 L 193.66 208.91 L 194.73 209.89 L 195.87 210.78 L 197.08 211.57 L 198.36 212.23 L 199.70 212.78 L 201.09 213.19 L 202.51 213.46 L 203.95 213.59 L 205.40 213.57 L 206.84 213.41 L 208.26 213.10 L 209.64 212.65 L 210.97 212.07 L 212.23 211.36 L 213.41 210.54 L 214.51 209.61 L 215.52 208.59 L 216.44 207.50 L 217.27 206.34 L 218.02 205.15 L 218.72 203.93 L 219.37 202.70 L 220.01 201.47 L 220.66 200.26 L 221.34 199.08 L 222.07 197.95 L 222.86 196.86 L 223.73 195.84 L 224.67 194.88 L 225.70 193.99 L 226.81 193.17 L 228.00 192.42 L 229.25 191.73 L 230.55 191.09 L 231.90 190.50 L 233.29 189.93 L 234.69 189.39 L 236.11 188.87 L 237.53 188.36 L 238.96 187.85 L 240.38 187.35 L 241.81 186.87 L 243.24 186.41 L 244.69 185.97 L 246.15 185.56 L 247.63 185.19 L 249.13 184.85 L 250.65 184.55 L 252.19 184.30 L 253.72 184.10 L 255.24 183.96 L 256.75 183.89 L 258.22 183.90 L 259.65 184.00 L 261.04 184.22 L 262.39 184.55 L 263.70 185.00 L 264.98 185.58 L 266.23 186.28 L 267.46 187.09 L 268.68 187.99 L 269.89 188.98 L 271.11 190.03 L 272.32 191.12 L 273.54 192.24 L 274.76 193.39 L 275.97 194.55 L 277.17 195.71 L 278.36 196.87 L 279.53 198.02 L 280.69 199.17 L 281.83 200.31 L 282.97 201.43 L 284.12 202.53 L 285.28 203.60 L 286.47 204.63 L 287.71 205.62 L 288.99 206.54 L 290.32 207.38 L 291.70 208.13 L 293.13 208.77 L 294.61 209.29 L 296.12 209.68 L 297.67 209.94 L 299.23 210.06 L 300.81 210.06 L 302.40 209.94 L 303.99 209.71 L 305.58 209.40 L 307.16 209.02 L 308.73 208.57 L 310.30 208.09 L 311.86 207.58 L 313.41 207.07 L 314.95 206.56 L 316.48 206.07 L 318.02 205.63 L 319.55 205.26 L 321.09 204.98 L 322.63 204.80 L 324.19 204.75 L 325.76 204.84 L 327.34 205.06 L 328.94 205.42 L 330.54 205.91 L 332.14 206.51 L 333.71 207.22 L 335.25 208.02 L 336.74 208.91 L 338.15 209.88 L 339.48 210.92 L 340.74 212.01 L 341.98 213.13 L 342.95 214.45 L 343.71 215.86 L 344.46 217.29 L 345.14 218.77 L 345.75 220.28 L 346.29 221.81 L 346.79 223.37 L 347.24 224.93 L 347.65 226.48 L 348.05 228.03 L 348.41 229.57 L 348.77 231.09 L 349.11 232.61 L 349.44 234.12 L 349.78 235.63 L 350.11 237.13 L 350.45 238.64 L 350.81 240.14 L 351.19 241.63 L 351.62 243.11 L 352.08 244.57 L 352.61 246.00 L 353.20 247.40 L 353.86 248.75 L 354.60 250.06 L 355.41 251.30 L 356.28 252.49 L 357.20 253.61 L 358.12 254.68 L 359.03 255.67 L 359.87 256.60 L 360.61 257.47 L 361.20 258.28 L 361.60 259.04 L 361.78 259.75 L 361.72 260.41 L 361.40 261.04 L 360.83 261.64 L 360.02 262.22 L 358.98 262.77 L 357.75 263.31 L 356.36 263.82 L 354.83 264.32 L 353.22 264.81 Z" />
</symbol>
<symbol id="bl1">
<path d="M 332.21 256.72 L 331.13 257.36 L 330.03 257.99 L 328.91 258.60 L 327.79 259.20 L 326.67 259.78 L 325.55 260.35 L 324.44 260.91 L 323.34 261.45 L 322.27 261.97 L 321.21 262.48 L 320.17 262.97 L 319.14 263.45 L 318.12 263.91 L 317.11 264.37 L 316.09 264.81 L 315.08 265.25 L 314.05 265.69 L 313.02 266.12 L 311.97 266.55 L 310.92 266.97 L 309.85 267.40 L 308.78 267.84 L 307.69 268.27 L 306.60 268.72 L 305.50 269.18 L 304.39 269.66 L 303.28 270.15 L 302.17 270.65 L 301.06 271.17 L 299.95 271.70 L 298.85 272.24 L 297.77 272.79 L 296.70 273.34 L 295.65 273.88 L 294.63 274.41 L 293.62 274.92 L 292.64 275.42 L 291.67 275.90 L 290.72 276.35 L 289.78 276.79 L 288.84 277.20 L 287.91 277.60 L 286.97 277.97 L 286.03 278.33 L 285.07 278.67 L 284.10 279.00 L 283.11 279.31 L 282.10 279.61 L 281.07 279.89 L 280.01 280.15 L 278.92 280.40 L 277.81 280.64 L 276.68 280.86 L 275.54 281.07 L 274.40 281.26 L 273.26 281.45 L 272.12 281.62 L 271.01 281.78 L 269.90 281.93 L 268.81 282.08 L 267.74 282.23 L 266.68 282.39 L 265.63 282.55 L 264.58 282.72 L 263.54 282.91 L 262.50 283.10 L 261.47 283.31 L 260.44 283.52 L 259.41 283.74 L 258.38 283.96 L 257.36 284.18 L 256.35 284.39 L 255.34 284.58 L 254.34 284.74 L 253.34 284.87 L 252.34 284.96 L 251.35 285.00 L 250.36 285.00 L 249.37 284.95 L 248.38 284.86 L 247.40 284.72 L 246.42 284.55 L 245.43 284.35 L 244.46 284.12 L 243.48 283.87 L 242.50 283.61 L 241.52 283.33 L 240.55 283.05 L 239.57 282.76 L 238.59 282.46 L 237.61 282.16 L 236.63 281.85 L 235.65 281.54 L 234.67 281.23 L 233.69 280.91 L 232.70 280.60 L 231.72 280.28 L 230.74 279.97 L 229.76 279.66 L 228.78 279.35 L 227.80 279.05 L 226.82 278.75 L 225.84 278.45 L 224.86 278.16 L 223.88 277.87 L 222.90 277.59 L 221.92 277.30 L 220.94 277.01 L 219.96 276.72 L 218.98 276.43 L 218.01 276.14 L 217.03 275.85 L 216.05 275.55 L 215.08 275.25 L 214.10 274.94 L 213.13 274.64 L 212.15 274.33 L 211.18 274.03 L 210.21 273.72 L 209.23 273.42 L 208.26 273.12 L 207.29 272.82 L 206.32 272.52 L 205.35 272.23 L 204.38 271.94 L 203.41 271.65 L 202.44 271.37 L 201.47 271.09 L 200.50 270.81 L 199.53 270.54 L 198.56 270.26 L 197.59 269.98 L 196.61 269.71 L 195.64 269.43 L 194.67 269.16 L 193.70 268.88 L 192.73 268.60 L 191.76 268.32 L 190.78 268.04 L 189.81 267.76 L 188.84 267.48 L 187.86 267.20 L 186.87 266.92 L 185.88 266.63 L 184.87 266.35 L 183.84 266.07 L 182.79 265.78 L 181.72 265.49 L 180.61 265.20 L 179.48 264.91 L 178.31 264.61 L 177.12 264.31 L 175.91 264.00 L 174.68 263.69 L 173.43 263.38 L 172.18 263.06 L 170.91 262.75 L 169.65 262.43 L 168.38 262.11 L 167.11 261.78 L 165.85 261.45 L 164.59 261.12 L 163.33 260.79 L 162.08 260.46 L 160.82 260.12 L 159.58 259.78 L 158.33 259.44 L 157.09 259.10 L 155.85 258.75 L 154.61 258.40 L 153.38 258.05 L 152.15 257.69 L 150.93 257.33 L 149.70 256.97 L 148.48 256.61 L 147.26 256.25 L 146.05 255.88 L 144.84 255.52 L 143.63 255.15 L 142.42 254.79 L 141.22 254.43 L 140.02 254.07 L 138.82 253.72 L 137.62 253.36 L 136.43 253.01 L 135.24 252.66 L 134.06 252.32 L 132.89 251.97 L 131.72 251.63 L 130.55 251.29 L 129.39 250.95 L 128.24 250.61 L 127.09 250.28 L 125.96 249.95 L 124.82 249.61 L 123.70 249.28 L 122.58 248.96 L 121.47 248.63 L 120.37 248.31 L 119.28 247.99 L 118.20 247.66 L 117.13 247.34 L 116.07 247.02 L 115.03 246.68 L 114.00 246.34 L 112.99 245.97 L 111.99 245.59 L 111.01 245.18 L 110.05 244.73 L 109.10 244.25 L 108.16 243.72 L 107.22 243.16 L 106.27 242.55 L 105.33 241.90 L 104.37 241.22 L 103.41 240.50 L 102.44 239.74 L 101.47 238.97 L 100.50 238.17 L 99.54 237.35 L 98.60 236.52 L 97.68 235.69 L 96.78 234.84 L 95.92 233.99 L 95.09 233.13 L 94.29 232.25 L 93.53 231.36 L 92.81 230.44 L 92.12 229.48 L 91.47 228.47 L 90.87 227.41 L 90.31 226.28 L 89.82 225.07 L 89.40 223.80 L 89.07 222.47 L 88.84 221.08 L 88.73 219.66 L 88.73 218.21 L 88.87 216.77 L 89.13 215.34 L 89.52 213.96 L 90.00 212.62 L 90.58 211.35 L 91.24 210.15 L 91.96 209.03 L 92.73 207.97 L 93.53 206.99 L 94.37 206.06 L 95.25 205.18 L 96.16 204.34 L 97.10 203.54 L 98.07 202.76 L 99.08 202.02 L 100.13 201.30 L 101.21 200.62 L 102.33 199.99 L 103.48 199.40 L 104.65 198.87 L 105.84 198.40 L 107.04 197.99 L 108.23 197.65 L 109.41 197.36 L 110.58 197.14 L 111.74 196.98 L 112.87 196.85 L 113.99 196.77 L 115.10 196.72 L 116.20 196.70 L 117.29 196.69 L 118.39 196.70 L 119.49 196.71 L 120.60 196.73 L 121.72 196.76 L 122.84 196.78 L 123.98 196.81 L 125.12 196.84 L 126.27 196.86 L 127.43 196.89 L 128.59 196.91 L 129.77 196.93 L 130.94 196.95 L 132.13 196.96 L 133.31 196.97 L 134.51 196.98 L 135.71 196.99 L 136.91 197.00 L 138.13 197.01 L 139.35 197.01 L 140.57 197.01 L 141.80 197.01 L 143.04 197.00 L 144.27 196.99 L 145.50 196.97 L 146.73 196.95 L 147.94 196.92 L 149.14 196.90 L 150.32 196.87 L 151.48 196.85 L 152.62 196.83 L 153.73 196.82 L 154.83 196.81 L 155.90 196.81 L 156.97 196.82 L 158.03 196.83 L 159.08 196.85 L 160.13 196.87 L 161.18 196.90 L 162.23 196.94 L 163.28 196.99 L 164.33 197.05 L 165.38 197.12 L 166.43 197.22 L 167.46 197.34 L 168.49 197.50 L 169.51 197.70 L 170.51 197.96 L 171.50 198.27 L 172.46 198.64 L 173.42 199.07 L 174.36 199.56 L 175.28 200.10 L 176.21 200.67 L 177.13 201.27 L 178.05 201.89 L 178.97 202.50 L 179.89 203.11 L 180.81 203.70 L 181.74 204.28 L 182.66 204.84 L 183.59 205.39 L 184.51 205.93 L 185.44 206.46 L 186.36 206.99 L 187.29 207.52 L 188.23 208.05 L 189.17 208.58 L 190.12 209.12 L 191.07 209.67 L 192.03 210.21 L 193.01 210.76 L 193.99 211.30 L 194.98 211.82 L 195.98 212.34 L 196.99 212.83 L 198.02 213.30 L 199.05 213.74 L 200.09 214.15 L 201.15 214.54 L 202.22 214.90 L 203.29 215.24 L 204.38 215.56 L 205.48 215.87 L 206.59 216.17 L 207.70 216.46 L 208.83 216.75 L 209.96 217.04 L 211.09 217.32 L 212.23 217.60 L 213.37 217.87 L 214.51 218.14 L 215.64 218.40 L 216.78 218.66 L 217.91 218.90 L 219.04 219.14 L 220.17 219.38 L 221.30 219.61 L 222.43 219.83 L 223.55 220.05 L 224.68 220.26 L 225.81 220.46 L 226.94 220.65 L 228.07 220.82 L 229.20 220.98 L 230.32 221.11 L 231.43 221.21 L 232.54 221.28 L 233.63 221.31 L 234.71 221.28 L 235.77 221.21 L 236.81 221.07 L 237.84 220.87 L 238.85 220.61 L 239.84 220.28 L 240.81 219.89 L 241.75 219.43 L 242.67 218.91 L 243.57 218.35 L 244.45 217.73 L 245.30 217.09 L 246.13 216.41 L 246.95 215.71 L 247.76 215.00 L 248.57 214.29 L 249.37 213.57 L 250.17 212.86 L 250.98 212.15 L 251.78 211.44 L 252.58 210.74 L 253.38 210.04 L 254.19 209.33 L 254.99 208.63 L 255.81 207.92 L 256.62 207.20 L 257.44 206.47 L 258.27 205.74 L 259.09 205.01 L 259.92 204.27 L 260.75 203.53 L 261.58 202.79 L 262.41 202.05 L 263.23 201.32 L 264.05 200.60 L 264.87 199.89 L 265.69 199.20 L 266.52 198.53 L 267.36 197.88 L 268.21 197.28 L 269.08 196.73 L 269.96 196.24 L 270.85 195.84 L 271.74 195.53 L 272.64 195.33 L 273.54 195.26 L 274.42 195.31 L 275.28 195.49 L 276.12 195.78 L 276.94 196.18 L 277.73 196.68 L 278.50 197.25 L 279.24 197.89 L 279.98 198.57 L 280.71 199.29 L 281.44 200.04 L 282.18 200.80 L 282.93 201.57 L 283.70 202.35 L 284.48 203.13 L 285.30 203.91 L 286.13 204.68 L 286.99 205.43 L 287.88 206.16 L 288.79 206.87 L 289.74 207.54 L 290.71 208.17 L 291.71 208.74 L 292.74 209.25 L 293.79 209.69 L 294.87 210.05 L 295.97 210.33 L 297.08 210.54 L 298.20 210.67 L 299.33 210.73 L 300.45 210.73 L 301.57 210.67 L 302.69 210.56 L 303.79 210.42 L 304.89 210.26 L 305.97 210.08 L 307.05 209.92 L 308.11 209.77 L 309.15 209.65 L 310.18 209.57 L 311.19 209.55 L 312.17 209.59 L 313.12 209.71 L 314.04 209.91 L 314.93 210.20 L 315.78 210.57 L 316.60 211.02 L 317.39 211.55 L 318.17 212.14 L 318.95 212.79 L 319.72 213.47 L 320.52 214.18 L 321.34 214.90 L 322.18 215.62 L 323.05 216.34 L 323.94 217.06 L 324.85 217.78 L 325.77 218.49 L 326.69 219.20 L 327.61 219.91 L 328.53 220.62 L 329.45 221.35 L 330.38 222.09 L 331.31 222.86 L 332.26 223.66 L 333.23 224.50 L 334.23 225.39 L 335.24 226.34 L 336.27 227.33 L 337.31 228.38 L 338.34 229.47 L 339.35 230.60 L 340.31 231.76 L 341.21 232.95 L 342.03 234.14 L 342.76 235.34 L 343.37 236.54 L 343.87 237.74 L 344.24 238.94 L 344.47 240.13 L 344.55 241.32 L 344.49 242.50 L 344.29 243.67 L 343.95 244.83 L 343.47 245.97 L 342.86 247.09 L 342.14 248.18 L 341.33 249.24 L 340.44 250.26 L 339.49 251.23 L 338.50 252.15 L 337.48 253.02 L 336.45 253.84 L 335.41 254.62 L 334.35 255.35 L 333.29 256.05 Z" />
</symbol>
<symbol id="bl2">
<path d="M 306.92 266.28 L 306.07 266.83 L 305.22 267.38 L 304.37 267.93 L 303.52 268.48 L 302.68 269.02 L 301.84 269.57 L 301.01 270.11 L 300.19 270.65 L 299.38 271.18 L 298.57 271.70 L 297.78 272.21 L 297.00 272.71 L 296.23 273.20 L 295.47 273.67 L 294.72 274.14 L 293.97 274.59 L 293.21 275.02 L 292.43 275.45 L 291.65 275.88 L 290.84 276.29 L 290.02 276.69 L 289.18 277.08 L 288.33 277.45 L 287.47 277.81 L 286.61 278.15 L 285.75 278.46 L 284.89 278.75 L 284.04 279.02 L 283.19 279.26 L 282.33 279.48 L 281.47 279.68 L 280.59 279.86 L 279.70 280.02 L 278.79 280.16 L 277.86 280.28 L 276.91 280.38 L 275.94 280.46 L 274.96 280.51 L 273.96 280.54 L 272.96 280.55 L 271.96 280.53 L 270.96 280.48 L 269.96 280.42 L 268.98 280.32 L 268.01 280.20 L 267.05 280.06 L 266.10 279.90 L 265.17 279.71 L 264.24 279.50 L 263.31 279.26 L 262.39 279.00 L 261.47 278.72 L 260.55 278.42 L 259.63 278.10 L 258.72 277.77 L 257.81 277.41 L 256.90 277.05 L 255.99 276.68 L 255.09 276.31 L 254.19 275.93 L 253.28 275.56 L 252.38 275.20 L 251.49 274.85 L 250.59 274.51 L 249.70 274.18 L 248.82 273.87 L 247.94 273.56 L 247.06 273.26 L 246.18 272.96 L 245.31 272.66 L 244.44 272.37 L 243.56 272.07 L 242.68 271.78 L 241.80 271.49 L 240.92 271.19 L 240.04 270.90 L 239.15 270.61 L 238.26 270.32 L 237.37 270.03 L 236.48 269.74 L 235.59 269.46 L 234.70 269.17 L 233.80 268.89 L 232.91 268.61 L 232.01 268.32 L 231.12 268.04 L 230.22 267.75 L 229.33 267.47 L 228.45 267.19 L 227.58 266.90 L 226.70 266.62 L 225.84 266.34 L 224.98 266.07 L 224.12 265.79 L 223.26 265.52 L 222.41 265.25 L 221.55 264.98 L 220.70 264.71 L 219.84 264.44 L 218.99 264.18 L 218.13 263.91 L 217.27 263.65 L 216.41 263.38 L 215.54 263.11 L 214.68 262.84 L 213.81 262.57 L 212.94 262.30 L 212.06 262.02 L 211.19 261.75 L 210.31 261.48 L 209.44 261.21 L 208.56 260.94 L 207.69 260.67 L 206.81 260.40 L 205.94 260.13 L 205.07 259.86 L 204.21 259.59 L 203.34 259.33 L 202.48 259.06 L 201.62 258.80 L 200.76 258.54 L 199.90 258.28 L 199.04 258.02 L 198.18 257.76 L 197.33 257.50 L 196.47 257.24 L 195.62 256.99 L 194.77 256.73 L 193.91 256.47 L 193.06 256.22 L 192.22 255.97 L 191.37 255.72 L 190.53 255.47 L 189.69 255.23 L 188.85 254.99 L 188.01 254.75 L 187.17 254.52 L 186.34 254.28 L 185.50 254.05 L 184.67 253.82 L 183.84 253.59 L 183.02 253.36 L 182.20 253.13 L 181.38 252.90 L 180.56 252.67 L 179.75 252.44 L 178.93 252.21 L 178.13 251.98 L 177.32 251.75 L 176.51 251.53 L 175.71 251.30 L 174.91 251.08 L 174.11 250.86 L 173.31 250.63 L 172.51 250.41 L 171.71 250.19 L 170.91 249.97 L 170.11 249.75 L 169.29 249.52 L 168.46 249.28 L 167.61 249.04 L 166.74 248.78 L 165.85 248.52 L 164.93 248.25 L 163.98 247.96 L 163.00 247.67 L 162.01 247.36 L 160.99 247.06 L 159.97 246.74 L 158.94 246.43 L 157.91 246.12 L 156.89 245.81 L 155.88 245.50 L 154.87 245.19 L 153.88 244.89 L 152.89 244.58 L 151.93 244.28 L 150.97 243.97 L 150.02 243.67 L 149.08 243.35 L 148.14 243.03 L 147.19 242.70 L 146.24 242.36 L 145.28 241.99 L 144.30 241.61 L 143.31 241.20 L 142.32 240.77 L 141.34 240.32 L 140.39 239.85 L 139.48 239.37 L 138.63 238.88 L 137.86 238.39 L 137.19 237.90 L 136.63 237.42 L 136.19 236.95 L 135.88 236.48 L 135.71 236.03 L 135.67 235.58 L 135.77 235.14 L 136.01 234.71 L 136.38 234.29 L 136.87 233.87 L 137.46 233.46 L 138.15 233.06 L 138.91 232.68 L 139.73 232.30 L 140.59 231.94 L 141.48 231.60 L 142.39 231.27 L 143.30 230.96 L 144.23 230.66 L 145.16 230.37 L 146.10 230.10 L 147.05 229.83 L 148.02 229.56 L 148.99 229.30 L 149.96 229.04 L 150.94 228.78 L 151.90 228.51 L 152.85 228.22 L 153.77 227.92 L 154.65 227.59 L 155.49 227.22 L 156.27 226.81 L 156.99 226.35 L 157.63 225.84 L 158.19 225.26 L 158.65 224.63 L 159.01 223.96 L 159.25 223.25 L 159.38 222.51 L 159.38 221.75 L 159.27 221.00 L 159.04 220.26 L 158.71 219.54 L 158.29 218.85 L 157.80 218.18 L 157.25 217.53 L 156.68 216.90 L 156.10 216.27 L 155.54 215.64 L 155.03 215.00 L 154.59 214.35 L 154.25 213.69 L 154.01 213.03 L 153.89 212.38 L 153.90 211.76 L 154.03 211.17 L 154.27 210.65 L 154.62 210.20 L 155.05 209.85 L 155.56 209.59 L 156.12 209.44 L 156.73 209.39 L 157.36 209.45 L 158.00 209.60 L 158.66 209.83 L 159.30 210.13 L 159.94 210.48 L 160.57 210.89 L 161.20 211.32 L 161.82 211.76 L 162.44 212.21 L 163.08 212.63 L 163.73 213.01 L 164.40 213.34 L 165.08 213.60 L 165.79 213.77 L 166.50 213.84 L 167.22 213.82 L 167.93 213.69 L 168.62 213.46 L 169.30 213.14 L 169.95 212.72 L 170.57 212.23 L 171.16 211.67 L 171.72 211.04 L 172.25 210.37 L 172.75 209.67 L 173.21 208.94 L 173.65 208.19 L 174.04 207.42 L 174.40 206.65 L 174.72 205.86 L 175.00 205.07 L 175.22 204.26 L 175.41 203.43 L 175.54 202.60 L 175.64 201.74 L 175.70 200.87 L 175.73 199.99 L 175.74 199.09 L 175.75 198.19 L 175.75 197.28 L 175.76 196.36 L 175.78 195.43 L 175.82 194.51 L 175.88 193.58 L 175.96 192.65 L 176.06 191.72 L 176.18 190.79 L 176.33 189.87 L 176.49 188.95 L 176.68 188.04 L 176.90 187.14 L 177.15 186.25 L 177.43 185.38 L 177.76 184.53 L 178.12 183.71 L 178.54 182.93 L 179.00 182.18 L 179.51 181.49 L 180.08 180.85 L 180.69 180.27 L 181.35 179.75 L 182.04 179.30 L 182.78 178.91 L 183.54 178.58 L 184.34 178.30 L 185.16 178.07 L 186.01 177.88 L 186.87 177.71 L 187.75 177.57 L 188.64 177.44 L 189.53 177.32 L 190.44 177.19 L 191.34 177.07 L 192.25 176.93 L 193.16 176.80 L 194.08 176.65 L 194.99 176.50 L 195.91 176.34 L 196.82 176.17 L 197.74 176.01 L 198.65 175.84 L 199.56 175.67 L 200.47 175.51 L 201.38 175.35 L 202.29 175.19 L 203.20 175.04 L 204.10 174.91 L 205.00 174.78 L 205.90 174.68 L 206.80 174.59 L 207.69 174.52 L 208.58 174.46 L 209.46 174.42 L 210.34 174.39 L 211.22 174.37 L 212.10 174.35 L 212.98 174.34 L 213.85 174.33 L 214.73 174.32 L 215.61 174.32 L 216.49 174.33 L 217.37 174.34 L 218.25 174.36 L 219.13 174.39 L 220.02 174.43 L 220.91 174.48 L 221.79 174.54 L 222.68 174.61 L 223.57 174.70 L 224.45 174.81 L 225.32 174.94 L 226.19 175.08 L 227.04 175.26 L 227.88 175.45 L 228.71 175.68 L 229.52 175.93 L 230.32 176.20 L 231.11 176.50 L 231.89 176.81 L 232.67 177.14 L 233.44 177.49 L 234.21 177.86 L 234.99 178.23 L 235.77 178.63 L 236.55 179.03 L 237.33 179.45 L 238.11 179.87 L 238.89 180.30 L 239.66 180.74 L 240.43 181.17 L 241.18 181.59 L 241.93 182.02 L 242.68 182.44 L 243.41 182.86 L 244.14 183.28 L 244.87 183.71 L 245.59 184.16 L 246.32 184.62 L 247.04 185.10 L 247.76 185.61 L 248.49 186.14 L 249.21 186.71 L 249.93 187.29 L 250.64 187.90 L 251.34 188.53 L 252.04 189.16 L 252.73 189.80 L 253.42 190.44 L 254.10 191.08 L 254.78 191.71 L 255.46 192.33 L 256.14 192.93 L 256.82 193.52 L 257.52 194.08 L 258.21 194.63 L 258.92 195.15 L 259.62 195.66 L 260.33 196.14 L 261.05 196.60 L 261.77 197.05 L 262.49 197.48 L 263.22 197.91 L 263.95 198.32 L 264.68 198.72 L 265.41 199.11 L 266.15 199.49 L 266.89 199.87 L 267.64 200.23 L 268.38 200.60 L 269.13 200.95 L 269.88 201.30 L 270.63 201.64 L 271.39 201.97 L 272.14 202.29 L 272.91 202.60 L 273.67 202.91 L 274.45 203.21 L 275.23 203.50 L 276.03 203.80 L 276.85 204.09 L 277.68 204.38 L 278.54 204.67 L 279.42 204.97 L 280.32 205.27 L 281.24 205.57 L 282.16 205.87 L 283.10 206.18 L 284.03 206.50 L 284.96 206.83 L 285.87 207.16 L 286.77 207.51 L 287.66 207.88 L 288.54 208.27 L 289.40 208.67 L 290.25 209.10 L 291.10 209.54 L 291.94 210.01 L 292.77 210.50 L 293.60 211.02 L 294.42 211.55 L 295.22 212.10 L 296.01 212.67 L 296.79 213.25 L 297.54 213.85 L 298.27 214.47 L 298.98 215.10 L 299.67 215.75 L 300.34 216.42 L 301.00 217.11 L 301.63 217.81 L 302.24 218.53 L 302.84 219.26 L 303.41 220.01 L 303.97 220.78 L 304.51 221.56 L 305.03 222.35 L 305.53 223.16 L 306.02 223.99 L 306.48 224.83 L 306.93 225.70 L 307.36 226.57 L 307.77 227.47 L 308.16 228.38 L 308.54 229.30 L 308.90 230.23 L 309.25 231.18 L 309.59 232.13 L 309.92 233.09 L 310.24 234.05 L 310.56 235.01 L 310.87 235.98 L 311.18 236.95 L 311.49 237.92 L 311.79 238.90 L 312.09 239.87 L 312.39 240.84 L 312.69 241.82 L 312.98 242.79 L 313.27 243.76 L 313.56 244.72 L 313.85 245.69 L 314.13 246.66 L 314.40 247.62 L 314.67 248.58 L 314.93 249.54 L 315.17 250.50 L 315.39 251.46 L 315.58 252.42 L 315.74 253.37 L 315.86 254.31 L 315.91 255.24 L 315.90 256.16 L 315.80 257.06 L 315.61 257.93 L 315.33 258.76 L 314.95 259.56 L 314.48 260.31 L 313.93 261.03 L 313.30 261.70 L 312.61 262.33 L 311.87 262.94 L 311.09 263.52 L 310.28 264.08 L 309.46 264.64 L 308.62 265.19 L 307.77 265.73 Z" />
</symbol>
<symbol id="bl3">
<path d="M 315.12 243.04 L 314.66 243.96 L 314.19 244.88 L 313.73 245.80 L 313.27 246.72 L 312.81 247.64 L 312.35 248.56 L 311.89 249.49 L 311.43 250.42 L 310.97 251.36 L 310.51 252.31 L 310.06 253.26 L 309.61 254.21 L 309.16 255.17 L 308.71 256.13 L 308.26 257.09 L 307.80 258.04 L 307.34 258.98 L 306.86 259.91 L 306.37 260.83 L 305.87 261.73 L 305.35 262.61 L 304.81 263.47 L 304.25 264.32 L 303.66 265.14 L 303.06 265.95 L 302.43 266.74 L 301.78 267.51 L 301.10 268.27 L 300.40 269.02 L 299.68 269.74 L 298.93 270.46 L 298.17 271.15 L 297.38 271.83 L 296.56 272.48 L 295.73 273.12 L 294.87 273.73 L 294.00 274.32 L 293.11 274.88 L 292.21 275.42 L 291.29 275.93 L 290.37 276.41 L 289.43 276.87 L 288.48 277.30 L 287.52 277.70 L 286.55 278.08 L 285.58 278.44 L 284.59 278.76 L 283.60 279.06 L 282.60 279.33 L 281.59 279.57 L 280.58 279.79 L 279.56 279.98 L 278.55 280.14 L 277.53 280.27 L 276.51 280.37 L 275.49 280.45 L 274.47 280.50 L 273.46 280.52 L 272.44 280.51 L 271.42 280.48 L 270.40 280.41 L 269.38 280.32 L 268.36 280.20 L 267.33 280.05 L 266.31 279.88 L 265.29 279.67 L 264.27 279.45 L 263.27 279.19 L 262.28 278.92 L 261.30 278.62 L 260.34 278.29 L 259.39 277.95 L 258.46 277.58 L 257.54 277.19 L 256.64 276.78 L 255.74 276.35 L 254.84 275.90 L 253.95 275.45 L 253.06 274.98 L 252.17 274.50 L 251.28 274.02 L 250.39 273.53 L 249.50 273.04 L 248.61 272.55 L 247.72 272.06 L 246.83 271.57 L 245.94 271.08 L 245.05 270.59 L 244.15 270.11 L 243.26 269.62 L 242.37 269.14 L 241.48 268.66 L 240.58 268.18 L 239.69 267.70 L 238.79 267.22 L 237.89 266.74 L 237.00 266.26 L 236.11 265.78 L 235.21 265.30 L 234.33 264.83 L 233.44 264.36 L 232.55 263.89 L 231.67 263.42 L 230.79 262.96 L 229.92 262.50 L 229.04 262.05 L 228.17 261.59 L 227.29 261.14 L 226.42 260.69 L 225.54 260.25 L 224.66 259.80 L 223.78 259.36 L 222.90 258.91 L 222.02 258.47 L 221.14 258.03 L 220.27 257.59 L 219.41 257.16 L 218.55 256.73 L 217.70 256.31 L 216.85 255.89 L 216.01 255.47 L 215.17 255.06 L 214.33 254.66 L 213.49 254.25 L 212.65 253.85 L 211.80 253.44 L 210.95 253.04 L 210.09 252.64 L 209.22 252.23 L 208.35 251.83 L 207.48 251.43 L 206.60 251.03 L 205.72 250.62 L 204.85 250.23 L 203.98 249.83 L 203.11 249.43 L 202.24 249.04 L 201.38 248.64 L 200.52 248.25 L 199.67 247.87 L 198.81 247.48 L 197.95 247.10 L 197.09 246.71 L 196.23 246.33 L 195.37 245.95 L 194.50 245.57 L 193.64 245.19 L 192.77 244.82 L 191.90 244.44 L 191.03 244.07 L 190.17 243.70 L 189.30 243.33 L 188.44 242.96 L 187.57 242.60 L 186.71 242.23 L 185.84 241.87 L 184.98 241.52 L 184.11 241.16 L 183.24 240.81 L 182.37 240.45 L 181.50 240.10 L 180.62 239.75 L 179.75 239.40 L 178.88 239.06 L 178.00 238.71 L 177.13 238.37 L 176.26 238.03 L 175.39 237.69 L 174.53 237.35 L 173.66 237.01 L 172.80 236.68 L 171.95 236.35 L 171.09 236.02 L 170.23 235.69 L 169.37 235.37 L 168.51 235.05 L 167.65 234.73 L 166.79 234.41 L 165.93 234.11 L 165.06 233.80 L 164.19 233.51 L 163.32 233.21 L 162.45 232.92 L 161.58 232.64 L 160.71 232.36 L 159.83 232.09 L 158.95 231.81 L 158.06 231.54 L 157.18 231.27 L 156.29 231.00 L 155.40 230.73 L 154.51 230.46 L 153.62 230.19 L 152.73 229.92 L 151.83 229.65 L 150.93 229.38 L 150.03 229.10 L 149.13 228.83 L 148.23 228.56 L 147.33 228.29 L 146.43 228.02 L 145.53 227.75 L 144.63 227.48 L 143.73 227.20 L 142.84 226.92 L 141.95 226.63 L 141.07 226.33 L 140.20 226.01 L 139.35 225.67 L 138.51 225.30 L 137.70 224.90 L 136.92 224.46 L 136.18 223.98 L 135.48 223.45 L 134.82 222.87 L 134.23 222.25 L 133.69 221.58 L 133.21 220.87 L 132.81 220.11 L 132.47 219.33 L 132.21 218.51 L 132.02 217.67 L 131.90 216.81 L 131.86 215.94 L 131.89 215.06 L 131.99 214.20 L 132.16 213.35 L 132.41 212.52 L 132.72 211.72 L 133.10 210.96 L 133.55 210.24 L 134.06 209.57 L 134.63 208.95 L 135.24 208.39 L 135.91 207.89 L 136.62 207.45 L 137.36 207.07 L 138.13 206.76 L 138.92 206.53 L 139.73 206.36 L 140.55 206.26 L 141.37 206.23 L 142.19 206.28 L 143.01 206.40 L 143.82 206.58 L 144.61 206.84 L 145.39 207.16 L 146.14 207.55 L 146.88 208.00 L 147.59 208.50 L 148.28 209.05 L 148.95 209.64 L 149.61 210.26 L 150.25 210.90 L 150.89 211.55 L 151.54 212.19 L 152.19 212.82 L 152.86 213.42 L 153.56 213.98 L 154.28 214.48 L 155.03 214.93 L 155.81 215.30 L 156.62 215.60 L 157.46 215.83 L 158.32 215.99 L 159.19 216.09 L 160.07 216.12 L 160.96 216.10 L 161.85 216.03 L 162.75 215.91 L 163.64 215.76 L 164.53 215.57 L 165.41 215.34 L 166.28 215.07 L 167.15 214.76 L 168.00 214.42 L 168.84 214.03 L 169.66 213.59 L 170.47 213.12 L 171.26 212.61 L 172.04 212.07 L 172.81 211.50 L 173.57 210.90 L 174.33 210.29 L 175.08 209.67 L 175.83 209.03 L 176.57 208.39 L 177.32 207.74 L 178.06 207.09 L 178.80 206.45 L 179.54 205.80 L 180.28 205.15 L 181.01 204.50 L 181.74 203.84 L 182.45 203.17 L 183.14 202.49 L 183.82 201.79 L 184.46 201.07 L 185.07 200.33 L 185.65 199.57 L 186.20 198.78 L 186.72 197.99 L 187.22 197.19 L 187.70 196.39 L 188.17 195.59 L 188.63 194.80 L 189.10 194.01 L 189.57 193.24 L 190.05 192.48 L 190.53 191.71 L 191.03 190.95 L 191.53 190.19 L 192.04 189.43 L 192.56 188.65 L 193.09 187.87 L 193.64 187.08 L 194.19 186.28 L 194.76 185.47 L 195.34 184.66 L 195.93 183.84 L 196.54 183.03 L 197.17 182.21 L 197.82 181.41 L 198.49 180.62 L 199.19 179.84 L 199.91 179.10 L 200.65 178.40 L 201.43 177.75 L 202.24 177.17 L 203.08 176.67 L 203.95 176.25 L 204.85 175.93 L 205.76 175.71 L 206.69 175.60 L 207.63 175.59 L 208.58 175.67 L 209.52 175.84 L 210.45 176.08 L 211.38 176.40 L 212.30 176.77 L 213.20 177.20 L 214.08 177.67 L 214.94 178.20 L 215.77 178.76 L 216.58 179.36 L 217.36 180.00 L 218.11 180.66 L 218.83 181.33 L 219.55 182.02 L 220.25 182.69 L 220.96 183.35 L 221.68 183.99 L 222.43 184.59 L 223.21 185.15 L 224.03 185.67 L 224.89 186.15 L 225.78 186.58 L 226.70 186.99 L 227.64 187.36 L 228.61 187.70 L 229.59 188.03 L 230.59 188.33 L 231.59 188.62 L 232.60 188.90 L 233.62 189.17 L 234.64 189.44 L 235.66 189.70 L 236.67 189.97 L 237.67 190.24 L 238.66 190.52 L 239.64 190.80 L 240.59 191.06 L 241.53 191.31 L 242.45 191.52 L 243.36 191.68 L 244.25 191.77 L 245.12 191.78 L 245.99 191.70 L 246.84 191.52 L 247.68 191.26 L 248.50 190.91 L 249.30 190.49 L 250.09 190.00 L 250.86 189.47 L 251.61 188.90 L 252.35 188.31 L 253.08 187.69 L 253.81 187.07 L 254.53 186.44 L 255.25 185.80 L 255.97 185.16 L 256.69 184.52 L 257.42 183.88 L 258.15 183.24 L 258.88 182.60 L 259.61 181.96 L 260.34 181.32 L 261.07 180.67 L 261.80 180.02 L 262.53 179.37 L 263.26 178.72 L 263.98 178.08 L 264.71 177.43 L 265.45 176.80 L 266.18 176.17 L 266.93 175.56 L 267.68 174.96 L 268.44 174.38 L 269.21 173.83 L 270.00 173.30 L 270.80 172.81 L 271.61 172.36 L 272.45 171.96 L 273.31 171.61 L 274.20 171.32 L 275.10 171.09 L 276.02 170.93 L 276.96 170.85 L 277.91 170.84 L 278.87 170.90 L 279.83 171.03 L 280.79 171.22 L 281.75 171.47 L 282.70 171.77 L 283.64 172.11 L 284.58 172.49 L 285.52 172.89 L 286.44 173.32 L 287.36 173.76 L 288.27 174.21 L 289.18 174.67 L 290.08 175.14 L 290.98 175.61 L 291.87 176.08 L 292.77 176.56 L 293.66 177.04 L 294.55 177.52 L 295.45 178.00 L 296.34 178.48 L 297.23 178.97 L 298.12 179.45 L 299.00 179.94 L 299.89 180.43 L 300.77 180.92 L 301.64 181.42 L 302.51 181.92 L 303.37 182.43 L 304.23 182.94 L 305.08 183.47 L 305.92 184.01 L 306.75 184.56 L 307.58 185.13 L 308.40 185.70 L 309.21 186.28 L 310.03 186.87 L 310.84 187.45 L 311.64 188.03 L 312.45 188.61 L 313.25 189.18 L 314.05 189.75 L 314.84 190.31 L 315.61 190.88 L 316.37 191.45 L 317.12 192.03 L 317.85 192.62 L 318.56 193.22 L 319.25 193.83 L 319.93 194.46 L 320.60 195.10 L 321.25 195.75 L 321.89 196.42 L 322.52 197.10 L 323.15 197.80 L 323.77 198.51 L 324.38 199.24 L 324.99 199.98 L 325.59 200.73 L 326.17 201.51 L 326.74 202.29 L 327.28 203.10 L 327.78 203.92 L 328.24 204.75 L 328.65 205.60 L 328.99 206.46 L 329.26 207.33 L 329.45 208.21 L 329.56 209.10 L 329.59 210.00 L 329.54 210.89 L 329.42 211.80 L 329.23 212.70 L 328.99 213.60 L 328.71 214.50 L 328.39 215.40 L 328.05 216.29 L 327.68 217.19 L 327.31 218.08 L 326.92 218.98 L 326.52 219.88 L 326.12 220.79 L 325.72 221.70 L 325.31 222.61 L 324.90 223.53 L 324.47 224.46 L 324.04 225.39 L 323.61 226.32 L 323.16 227.25 L 322.71 228.19 L 322.25 229.12 L 321.79 230.06 L 321.31 230.99 L 320.84 231.92 L 320.36 232.85 L 319.87 233.78 L 319.39 234.70 L 318.91 235.63 L 318.43 236.56 L 317.95 237.49 L 317.47 238.42 L 317.00 239.34 L 316.53 240.27 L 316.06 241.20 L 315.59 242.12 Z" />
</symbol>
<symbol id="bl4">
<path d="M 382.89 252.68 L 382.18 253.46 L 381.42 254.20 L 380.62 254.89 L 379.77 255.54 L 378.87 256.15 L 377.94 256.71 L 376.98 257.23 L 375.98 257.70 L 374.96 258.13 L 373.92 258.52 L 372.86 258.87 L 371.78 259.20 L 370.70 259.50 L 369.61 259.78 L 368.51 260.05 L 367.40 260.31 L 366.29 260.55 L 365.18 260.80 L 364.07 261.04 L 362.96 261.28 L 361.84 261.53 L 360.72 261.78 L 359.60 262.04 L 358.47 262.30 L 357.34 262.57 L 356.21 262.84 L 355.07 263.11 L 353.93 263.38 L 352.80 263.65 L 351.65 263.92 L 350.51 264.19 L 349.37 264.45 L 348.23 264.72 L 347.09 264.99 L 345.95 265.26 L 344.82 265.53 L 343.68 265.80 L 342.54 266.07 L 341.40 266.34 L 340.25 266.62 L 339.11 266.89 L 337.96 267.17 L 336.81 267.44 L 335.65 267.71 L 334.49 267.98 L 333.33 268.24 L 332.16 268.50 L 330.99 268.75 L 329.81 269.00 L 328.63 269.25 L 327.45 269.49 L 326.28 269.73 L 325.10 269.97 L 323.93 270.21 L 322.76 270.45 L 321.59 270.69 L 320.42 270.93 L 319.26 271.18 L 318.09 271.42 L 316.92 271.68 L 315.74 271.93 L 314.56 272.19 L 313.38 272.45 L 312.19 272.72 L 310.99 272.99 L 309.78 273.26 L 308.58 273.53 L 307.36 273.81 L 306.15 274.08 L 304.93 274.36 L 303.72 274.64 L 302.52 274.92 L 301.31 275.20 L 300.12 275.48 L 298.93 275.76 L 297.75 276.04 L 296.57 276.32 L 295.39 276.61 L 294.22 276.89 L 293.05 277.17 L 291.87 277.45 L 290.70 277.73 L 289.51 278.01 L 288.33 278.29 L 287.14 278.56 L 285.94 278.82 L 284.74 279.08 L 283.54 279.33 L 282.33 279.56 L 281.12 279.77 L 279.91 279.96 L 278.70 280.13 L 277.49 280.27 L 276.28 280.37 L 275.07 280.44 L 273.86 280.47 L 272.65 280.47 L 271.45 280.43 L 270.24 280.34 L 269.03 280.22 L 267.83 280.06 L 266.62 279.86 L 265.43 279.62 L 264.24 279.34 L 263.06 279.03 L 261.90 278.68 L 260.74 278.30 L 259.61 277.89 L 258.48 277.44 L 257.37 276.97 L 256.27 276.47 L 255.18 275.95 L 254.10 275.41 L 253.03 274.86 L 251.97 274.30 L 250.91 273.73 L 249.86 273.16 L 248.82 272.58 L 247.78 272.00 L 246.75 271.41 L 245.72 270.83 L 244.69 270.24 L 243.67 269.66 L 242.65 269.07 L 241.62 268.48 L 240.60 267.90 L 239.58 267.32 L 238.56 266.74 L 237.54 266.16 L 236.51 265.59 L 235.49 265.02 L 234.47 264.46 L 233.44 263.90 L 232.42 263.35 L 231.41 262.81 L 230.39 262.28 L 229.39 261.75 L 228.39 261.23 L 227.39 260.72 L 226.39 260.21 L 225.40 259.71 L 224.40 259.21 L 223.41 258.71 L 222.40 258.22 L 221.40 257.73 L 220.39 257.24 L 219.38 256.75 L 218.37 256.27 L 217.36 255.79 L 216.35 255.31 L 215.33 254.83 L 214.32 254.35 L 213.31 253.88 L 212.30 253.41 L 211.29 252.94 L 210.28 252.47 L 209.27 252.00 L 208.25 251.53 L 207.24 251.07 L 206.22 250.61 L 205.20 250.15 L 204.18 249.69 L 203.17 249.23 L 202.15 248.77 L 201.13 248.31 L 200.12 247.85 L 199.11 247.39 L 198.10 246.92 L 197.09 246.46 L 196.08 246.00 L 195.07 245.53 L 194.07 245.07 L 193.06 244.61 L 192.07 244.15 L 191.07 243.70 L 190.07 243.25 L 189.08 242.81 L 188.09 242.37 L 187.10 241.93 L 186.11 241.50 L 185.12 241.06 L 184.13 240.63 L 183.14 240.19 L 182.15 239.75 L 181.16 239.31 L 180.15 238.87 L 179.14 238.42 L 178.10 237.97 L 177.05 237.50 L 175.97 237.03 L 174.85 236.53 L 173.69 236.03 L 172.50 235.50 L 171.27 234.96 L 170.01 234.40 L 168.72 233.84 L 167.40 233.26 L 166.07 232.68 L 164.73 232.09 L 163.39 231.50 L 162.06 230.91 L 160.75 230.31 L 159.47 229.69 L 158.23 229.07 L 157.05 228.41 L 155.94 227.73 L 154.93 227.01 L 154.02 226.24 L 153.24 225.43 L 152.59 224.56 L 152.08 223.64 L 151.70 222.67 L 151.46 221.65 L 151.33 220.60 L 151.32 219.52 L 151.39 218.41 L 151.54 217.28 L 151.76 216.14 L 152.03 214.99 L 152.35 213.83 L 152.73 212.67 L 153.15 211.51 L 153.64 210.37 L 154.18 209.26 L 154.80 208.19 L 155.49 207.20 L 156.26 206.29 L 157.10 205.49 L 158.00 204.81 L 158.96 204.25 L 160.02 203.94 L 161.11 203.82 L 162.21 203.82 L 163.32 203.94 L 164.43 204.17 L 165.54 204.47 L 166.63 204.80 L 167.71 205.15 L 168.78 205.46 L 169.84 205.71 L 170.89 205.88 L 171.95 205.95 L 173.00 205.92 L 174.06 205.79 L 175.12 205.56 L 176.18 205.24 L 177.24 204.84 L 178.29 204.37 L 179.32 203.84 L 180.33 203.24 L 181.31 202.59 L 182.26 201.88 L 183.16 201.12 L 184.03 200.30 L 184.85 199.43 L 185.64 198.53 L 186.39 197.58 L 187.11 196.62 L 187.82 195.64 L 188.51 194.66 L 189.20 193.69 L 189.90 192.74 L 190.61 191.81 L 191.32 190.91 L 192.06 190.05 L 192.82 189.23 L 193.61 188.45 L 194.44 187.73 L 195.29 187.06 L 196.19 186.44 L 197.12 185.88 L 198.09 185.36 L 199.10 184.90 L 200.14 184.47 L 201.20 184.08 L 202.27 183.70 L 203.36 183.34 L 204.45 182.97 L 205.53 182.58 L 206.61 182.17 L 207.67 181.73 L 208.73 181.26 L 209.78 180.77 L 210.82 180.25 L 211.87 179.74 L 212.91 179.23 L 213.95 178.73 L 214.99 178.27 L 216.04 177.83 L 217.08 177.43 L 218.13 177.07 L 219.17 176.76 L 220.23 176.48 L 221.29 176.25 L 222.35 176.08 L 223.42 175.96 L 224.49 175.91 L 225.55 175.93 L 226.60 176.02 L 227.64 176.17 L 228.66 176.40 L 229.67 176.68 L 230.65 177.01 L 231.63 177.39 L 232.58 177.80 L 233.54 178.24 L 234.48 178.69 L 235.43 179.16 L 236.38 179.64 L 237.33 180.13 L 238.29 180.63 L 239.27 181.14 L 240.26 181.66 L 241.26 182.19 L 242.28 182.75 L 243.32 183.32 L 244.36 183.92 L 245.41 184.55 L 246.45 185.21 L 247.48 185.90 L 248.50 186.62 L 249.51 187.36 L 250.50 188.12 L 251.47 188.89 L 252.44 189.66 L 253.41 190.42 L 254.39 191.15 L 255.39 191.85 L 256.41 192.49 L 257.46 193.07 L 258.53 193.56 L 259.64 193.97 L 260.78 194.29 L 261.94 194.51 L 263.11 194.63 L 264.30 194.67 L 265.50 194.63 L 266.70 194.52 L 267.90 194.36 L 269.09 194.16 L 270.29 193.93 L 271.48 193.68 L 272.67 193.41 L 273.87 193.12 L 275.06 192.81 L 276.24 192.49 L 277.42 192.14 L 278.59 191.77 L 279.74 191.35 L 280.88 190.89 L 282.00 190.37 L 283.10 189.81 L 284.19 189.21 L 285.26 188.56 L 286.33 187.89 L 287.39 187.21 L 288.46 186.53 L 289.55 185.87 L 290.65 185.26 L 291.78 184.69 L 292.94 184.20 L 294.12 183.78 L 295.32 183.45 L 296.53 183.21 L 297.76 183.08 L 298.98 183.04 L 300.20 183.11 L 301.39 183.28 L 302.56 183.55 L 303.69 183.91 L 304.77 184.37 L 305.80 184.90 L 306.77 185.51 L 307.68 186.20 L 308.51 186.94 L 309.28 187.75 L 309.97 188.62 L 310.58 189.53 L 311.11 190.50 L 311.57 191.51 L 311.94 192.55 L 312.24 193.63 L 312.45 194.73 L 312.59 195.85 L 312.64 196.98 L 312.63 198.12 L 312.54 199.26 L 312.38 200.39 L 312.17 201.53 L 311.91 202.66 L 311.62 203.79 L 311.29 204.92 L 310.94 206.05 L 310.60 207.18 L 310.26 208.30 L 309.95 209.43 L 309.70 210.54 L 309.51 211.65 L 309.41 212.72 L 309.41 213.76 L 309.52 214.75 L 309.76 215.68 L 310.12 216.52 L 310.61 217.27 L 311.21 217.90 L 311.90 218.41 L 312.68 218.79 L 313.53 219.05 L 314.42 219.18 L 315.35 219.19 L 316.30 219.10 L 317.26 218.92 L 318.22 218.67 L 319.19 218.36 L 320.15 218.01 L 321.11 217.62 L 322.07 217.21 L 323.02 216.76 L 323.96 216.29 L 324.89 215.80 L 325.80 215.27 L 326.70 214.72 L 327.59 214.13 L 328.47 213.52 L 329.33 212.88 L 330.17 212.22 L 331.01 211.54 L 331.83 210.83 L 332.65 210.11 L 333.47 209.37 L 334.29 208.61 L 335.10 207.83 L 335.92 207.04 L 336.75 206.24 L 337.57 205.43 L 338.41 204.60 L 339.24 203.77 L 340.09 202.94 L 340.94 202.10 L 341.81 201.26 L 342.69 200.42 L 343.58 199.58 L 344.49 198.75 L 345.40 197.93 L 346.33 197.13 L 347.28 196.35 L 348.24 195.61 L 349.22 194.90 L 350.23 194.24 L 351.27 193.63 L 352.35 193.07 L 353.46 192.57 L 354.62 192.14 L 355.81 191.79 L 357.03 191.53 L 358.27 191.34 L 359.52 191.25 L 360.78 191.26 L 362.02 191.35 L 363.26 191.54 L 364.47 191.83 L 365.64 192.20 L 366.79 192.66 L 367.88 193.20 L 368.93 193.82 L 369.93 194.51 L 370.87 195.28 L 371.75 196.11 L 372.58 196.99 L 373.34 197.93 L 374.05 198.92 L 374.71 199.94 L 375.31 201.00 L 375.87 202.08 L 376.40 203.19 L 376.89 204.31 L 377.35 205.44 L 377.80 206.58 L 378.23 207.72 L 378.66 208.87 L 379.07 210.01 L 379.47 211.16 L 379.87 212.29 L 380.27 213.43 L 380.66 214.56 L 381.04 215.68 L 381.42 216.80 L 381.79 217.91 L 382.16 219.02 L 382.52 220.12 L 382.87 221.21 L 383.21 222.29 L 383.55 223.37 L 383.88 224.44 L 384.20 225.51 L 384.52 226.57 L 384.82 227.63 L 385.12 228.68 L 385.41 229.73 L 385.68 230.79 L 385.95 231.83 L 386.20 232.88 L 386.43 233.93 L 386.65 234.98 L 386.83 236.03 L 386.99 237.08 L 387.12 238.13 L 387.20 239.17 L 387.24 240.22 L 387.24 241.26 L 387.18 242.30 L 387.07 243.33 L 386.90 244.35 L 386.68 245.36 L 386.40 246.35 L 386.06 247.33 L 385.67 248.29 L 385.22 249.23 L 384.72 250.14 L 384.16 251.02 L 383.56 251.87 Z" />
</symbol>
<symbol id="bl5">
<path d="M 467.01 299.54 L 465.24 300.31 L 463.48 301.05 L 461.73 301.75 L 460.00 302.43 L 458.30 303.08 L 456.64 303.70 L 455.00 304.30 L 453.38 304.87 L 451.78 305.42 L 450.18 305.95 L 448.59 306.48 L 447.00 306.99 L 445.39 307.49 L 443.78 307.99 L 442.15 308.49 L 440.50 308.98 L 438.84 309.46 L 437.16 309.94 L 435.47 310.41 L 433.76 310.89 L 432.03 311.35 L 430.29 311.81 L 428.54 312.27 L 426.77 312.72 L 424.99 313.17 L 423.19 313.62 L 421.39 314.05 L 419.57 314.49 L 417.73 314.92 L 415.89 315.34 L 414.03 315.76 L 412.17 316.18 L 410.29 316.59 L 408.41 316.99 L 406.51 317.39 L 404.61 317.78 L 402.70 318.17 L 400.77 318.55 L 398.84 318.93 L 396.90 319.30 L 394.96 319.66 L 393.01 320.02 L 391.04 320.37 L 389.08 320.72 L 387.10 321.06 L 385.12 321.39 L 383.14 321.72 L 381.15 322.04 L 379.15 322.36 L 377.15 322.66 L 375.15 322.97 L 373.14 323.26 L 371.14 323.55 L 369.14 323.82 L 367.14 324.10 L 365.16 324.36 L 363.20 324.61 L 361.27 324.86 L 359.37 325.09 L 357.52 325.31 L 355.70 325.52 L 353.94 325.73 L 352.22 325.92 L 350.54 326.09 L 348.89 326.27 L 347.28 326.43 L 345.68 326.58 L 344.11 326.73 L 342.54 326.88 L 340.98 327.02 L 339.43 327.15 L 337.87 327.28 L 336.32 327.40 L 334.77 327.53 L 333.22 327.64 L 331.66 327.76 L 330.11 327.86 L 328.55 327.97 L 326.99 328.07 L 325.44 328.16 L 323.88 328.25 L 322.32 328.34 L 320.76 328.42 L 319.20 328.50 L 317.64 328.57 L 316.08 328.64 L 314.52 328.70 L 312.96 328.76 L 311.40 328.82 L 309.83 328.87 L 308.27 328.92 L 306.71 328.96 L 305.14 329.00 L 303.58 329.03 L 302.01 329.07 L 300.45 329.09 L 298.88 329.11 L 297.31 329.13 L 295.75 329.15 L 294.18 329.16 L 292.61 329.16 L 291.05 329.16 L 289.48 329.16 L 287.91 329.15 L 286.35 329.13 L 284.78 329.11 L 283.22 329.09 L 281.65 329.06 L 280.09 329.03 L 278.52 328.99 L 276.95 328.95 L 275.39 328.90 L 273.82 328.85 L 272.26 328.80 L 270.69 328.74 L 269.13 328.67 L 267.56 328.61 L 266.00 328.54 L 264.43 328.46 L 262.87 328.38 L 261.31 328.30 L 259.74 328.21 L 258.18 328.12 L 256.62 328.02 L 255.06 327.92 L 253.50 327.81 L 251.94 327.70 L 250.38 327.59 L 248.82 327.46 L 247.26 327.34 L 245.70 327.21 L 244.15 327.08 L 242.59 326.94 L 241.04 326.80 L 239.48 326.65 L 237.93 326.50 L 236.37 326.35 L 234.82 326.19 L 233.27 326.03 L 231.71 325.86 L 230.15 325.69 L 228.59 325.51 L 227.01 325.33 L 225.41 325.14 L 223.80 324.94 L 222.15 324.74 L 220.47 324.53 L 218.75 324.31 L 216.98 324.08 L 215.17 323.84 L 213.31 323.58 L 211.41 323.32 L 209.48 323.04 L 207.52 322.75 L 205.55 322.45 L 203.56 322.13 L 201.56 321.80 L 199.56 321.47 L 197.56 321.12 L 195.56 320.77 L 193.57 320.41 L 191.58 320.05 L 189.60 319.68 L 187.62 319.31 L 185.65 318.93 L 183.68 318.55 L 181.72 318.17 L 179.77 317.77 L 177.83 317.38 L 175.89 316.97 L 173.97 316.57 L 172.05 316.15 L 170.14 315.73 L 168.24 315.31 L 166.35 314.89 L 164.47 314.46 L 162.60 314.02 L 160.74 313.58 L 158.89 313.14 L 157.06 312.70 L 155.24 312.25 L 153.42 311.80 L 151.63 311.35 L 149.84 310.89 L 148.07 310.43 L 146.31 309.97 L 144.57 309.50 L 142.84 309.03 L 141.13 308.56 L 139.43 308.07 L 137.75 307.59 L 136.08 307.10 L 134.43 306.60 L 132.79 306.09 L 131.17 305.58 L 129.55 305.07 L 127.93 304.54 L 126.32 304.00 L 124.69 303.44 L 123.05 302.86 L 121.38 302.26 L 119.68 301.64 L 117.95 300.98 L 116.20 300.30 L 114.41 299.59 L 112.61 298.84 L 110.81 298.08 L 109.01 297.29 L 107.22 296.47 L 105.45 295.63 L 103.70 294.76 L 101.97 293.86 L 100.27 292.90 L 98.59 291.89 L 96.93 290.81 L 95.30 289.65 L 93.71 288.40 L 92.18 287.07 L 90.74 285.66 L 89.40 284.16 L 88.22 282.60 L 87.21 280.97 L 86.41 279.31 L 85.84 277.61 L 85.52 275.89 L 85.44 274.15 L 85.62 272.40 L 86.04 270.64 L 86.70 268.90 L 87.56 267.16 L 88.61 265.46 L 89.81 263.79 L 91.12 262.18 L 92.53 260.63 L 93.99 259.16 L 95.48 257.77 L 96.99 256.46 L 98.50 255.22 L 100.01 254.05 L 101.53 252.92 L 103.06 251.83 L 104.60 250.77 L 106.16 249.72 L 107.74 248.67 L 109.35 247.63 L 110.98 246.57 L 112.63 245.51 L 114.30 244.43 L 116.00 243.35 L 117.71 242.24 L 119.44 241.13 L 121.18 240.01 L 122.94 238.89 L 124.70 237.76 L 126.47 236.64 L 128.24 235.52 L 130.01 234.42 L 131.75 233.34 L 133.47 232.27 L 135.15 231.24 L 136.80 230.23 L 138.39 229.24 L 139.94 228.27 L 141.43 227.30 L 142.89 226.34 L 144.30 225.37 L 145.69 224.38 L 147.05 223.38 L 148.40 222.36 L 149.74 221.33 L 151.07 220.29 L 152.39 219.25 L 153.70 218.19 L 154.99 217.13 L 156.24 216.04 L 157.44 214.93 L 158.58 213.77 L 159.66 212.58 L 160.67 211.34 L 161.62 210.06 L 162.53 208.75 L 163.41 207.43 L 164.28 206.12 L 165.15 204.83 L 166.02 203.57 L 166.90 202.34 L 167.77 201.12 L 168.77 200.02 L 170.05 199.38 L 171.57 199.50 L 173.05 199.70 L 174.51 199.88 L 175.97 200.05 L 177.41 200.19 L 178.85 200.30 L 180.27 200.38 L 181.71 200.16 L 183.01 199.36 L 184.24 198.42 L 185.46 197.41 L 186.67 196.33 L 187.87 195.18 L 189.07 193.97 L 190.28 192.74 L 191.53 191.51 L 192.81 190.32 L 194.14 189.21 L 195.53 188.18 L 196.97 187.28 L 198.46 186.51 L 199.99 185.89 L 201.56 185.41 L 203.16 185.09 L 204.77 184.91 L 206.41 184.86 L 208.05 184.91 L 209.71 185.05 L 211.38 185.24 L 213.06 185.45 L 214.76 185.66 L 216.48 185.83 L 218.23 185.95 L 220.00 185.99 L 221.79 185.95 L 223.60 185.81 L 225.42 185.59 L 227.25 185.29 L 229.09 184.93 L 230.93 184.52 L 232.78 184.06 L 234.63 183.59 L 236.51 183.23 L 238.32 183.57 L 240.09 184.13 L 241.84 184.72 L 243.56 185.37 L 245.24 186.09 L 246.87 186.88 L 248.46 187.75 L 250.00 188.66 L 251.51 189.62 L 253.00 190.59 L 254.49 191.56 L 255.97 192.52 L 257.47 193.46 L 258.99 194.37 L 260.53 195.24 L 262.09 196.05 L 263.66 196.81 L 265.24 197.50 L 266.82 198.11 L 268.40 198.63 L 269.99 199.08 L 271.59 199.47 L 273.21 199.81 L 274.82 199.76 L 276.12 198.95 L 277.31 197.96 L 278.51 196.94 L 279.70 195.89 L 280.88 194.80 L 282.06 193.69 L 283.24 192.55 L 284.42 191.41 L 285.63 190.27 L 286.87 189.16 L 288.14 188.10 L 289.46 187.11 L 290.83 186.22 L 292.23 185.45 L 293.67 184.81 L 295.14 184.31 L 296.62 183.97 L 298.11 183.79 L 299.60 183.76 L 301.09 183.90 L 302.56 184.17 L 304.01 184.59 L 305.44 185.13 L 306.86 185.78 L 308.25 186.53 L 309.63 187.37 L 311.01 188.28 L 312.37 189.25 L 313.72 190.28 L 315.07 191.36 L 316.41 192.47 L 317.73 193.63 L 319.04 194.81 L 320.32 196.01 L 321.57 197.23 L 322.79 198.46 L 323.97 199.70 L 325.11 200.94 L 326.22 202.19 L 327.30 203.45 L 328.34 204.72 L 329.36 206.00 L 330.37 207.27 L 331.37 208.55 L 332.38 209.82 L 333.42 211.07 L 334.49 212.29 L 335.62 213.46 L 336.82 214.58 L 338.08 215.64 L 339.41 216.64 L 340.86 217.49 L 342.37 218.29 L 343.93 219.02 L 345.54 219.70 L 347.17 220.32 L 348.83 220.89 L 350.51 221.41 L 352.20 221.87 L 353.90 222.28 L 355.60 222.62 L 357.32 222.90 L 359.04 223.12 L 360.77 223.28 L 362.52 223.39 L 364.27 223.47 L 366.02 223.55 L 367.78 223.62 L 369.53 223.72 L 371.28 223.86 L 373.02 224.04 L 374.76 224.27 L 376.48 224.55 L 378.19 224.87 L 379.89 225.22 L 381.57 225.61 L 383.25 226.02 L 384.92 226.45 L 386.59 226.90 L 388.25 227.35 L 389.91 227.82 L 391.57 228.28 L 393.22 228.76 L 394.87 229.24 L 396.52 229.72 L 398.16 230.20 L 399.80 230.69 L 401.43 231.18 L 403.05 231.67 L 404.66 232.17 L 406.26 232.66 L 407.84 233.15 L 409.42 233.65 L 410.99 234.14 L 412.55 234.63 L 414.10 235.12 L 415.64 235.61 L 417.18 236.11 L 418.72 236.60 L 420.27 237.10 L 421.83 237.61 L 423.40 238.13 L 425.00 238.66 L 426.63 239.21 L 428.29 239.77 L 429.98 240.35 L 431.70 240.94 L 433.44 241.55 L 435.20 242.17 L 436.97 242.80 L 438.73 243.44 L 440.50 244.08 L 442.24 244.72 L 443.98 245.36 L 445.69 245.99 L 447.38 246.62 L 449.05 247.25 L 450.70 247.88 L 452.34 248.50 L 453.97 249.13 L 455.59 249.76 L 457.22 250.41 L 458.86 251.07 L 460.51 251.76 L 462.19 252.48 L 463.89 253.22 L 465.61 254.00 L 467.35 254.82 L 469.09 255.67 L 470.84 256.56 L 472.57 257.48 L 474.29 258.44 L 475.98 259.45 L 477.64 260.51 L 479.26 261.63 L 480.85 262.82 L 482.39 264.10 L 483.86 265.46 L 485.25 266.91 L 486.51 268.44 L 487.63 270.05 L 488.57 271.72 L 489.29 273.44 L 489.77 275.19 L 490.00 276.95 L 489.96 278.72 L 489.66 280.46 L 489.10 282.17 L 488.31 283.83 L 487.32 285.43 L 486.15 286.96 L 484.85 288.40 L 483.45 289.76 L 481.97 291.03 L 480.43 292.20 L 478.85 293.30 L 477.24 294.33 L 475.60 295.30 L 473.94 296.21 L 472.24 297.09 L 470.52 297.94 L 468.77 298.75 Z" />
</symbol>
</defs>
<!-- isDone: 0 -->
<rect width="700" height="500" style="fill:#fff;stroke-width:0" />
<use class="p0 borderLine" xlink:href="#bl0"/>
<use class="p1 borderLine" xlink:href="#bl1"/>
<use class="p2 borderLine" xlink:href="#bl2"/>
<use class="p3 borderLine" xlink:href="#bl3"/>
<use class="p4 borderLine" xlink:href="#bl4"/>
<use class="p5 borderLine" xlink:href="#bl5"/>
<use class="q0 outLine" xlink:href="#bl0"/>
<use class="q1 outLine" xlink:href="#bl1"/>
<use class="q2 outLine" xlink:href="#bl2"/>
<use class="q3 outLine" xlink:href="#bl3"/>
<use class="q4 outLine" xlink:href="#bl4"/>
<use class="q5 outLine" xlink:href="#bl5"/>
<circle onclick="fromCircle(32)" class="circle" cx="31.8060" cy="257.5377" r="9.3179" />
<text class="nLabel" x="31.81" y="252.54">20</text>
<text class="belong" x="31.81" y="262.54">(1)</text>
<circle onclick="fromCircle(48)" class="circle" cx="110.7911" cy="240.2805" r="2.9466" />
<text class="nLabel" x="110.79" y="235.28">2</text>
<text class="belong" x="110.79" y="245.28">(1, 2)</text>
<circle onclick="fromCircle(63)" class="circle" cx="273.5482" cy="242.9010" r="35.6037" />
<text class="nLabel" x="273.55" y="237.90">292</text>
<text class="belong" x="273.55" y="247.90">(1, 2, 3, 4, 5, 6)</text>
<circle onclick="fromCircle(16)" class="circle" cx="111.2753" cy="216.0914" r="17.0546" />
<text class="nLabel" x="111.28" y="211.09">67</text>
<text class="belong" x="111.28" y="221.09">(2)</text>
<circle onclick="fromCircle(20)" class="circle" cx="140.7391" cy="215.8101" r="7.7959" />
<text class="nLabel" x="140.74" y="210.81">14</text>
<text class="belong" x="140.74" y="220.81">(2, 4)</text>
<circle onclick="fromCircle(23)" class="circle" cx="154.9130" cy="222.1796" r="2.9466" />
<text class="nLabel" x="154.91" y="217.18">2</text>
<text class="belong" x="154.91" y="227.18">(2, 4, 5, 6)</text>
<circle onclick="fromCircle(18)" class="circle" cx="159.8406" cy="206.1562" r="2.0836" />
<text class="nLabel" x="159.84" y="201.16">1</text>
<text class="belong" x="159.84" y="211.16">(2, 5)</text>
<circle onclick="fromCircle(26)" class="circle" cx="156.8534" cy="212.1216" r="2.0836" />
<text class="nLabel" x="156.85" y="207.12">1</text>
<text class="belong" x="156.85" y="217.12">(2, 3, 5)</text>
<circle onclick="fromCircle(19)" class="circle" cx="166.4469" cy="209.6880" r="2.9466" />
<text class="nLabel" x="166.45" y="204.69">2</text>
<text class="belong" x="166.45" y="214.69">(2, 5, 6)</text>
<circle onclick="fromCircle(17)" class="circle" cx="170.5858" cy="202.3911" r="2.9466" />
<text class="nLabel" x="170.59" y="197.39">2</text>
<text class="belong" x="170.59" y="207.39">(2, 6)</text>
<circle onclick="fromCircle(8)" class="circle" cx="184.8665" cy="185.6039" r="5.5126" />
<text class="nLabel" x="184.87" y="180.60">7</text>
<text class="belong" x="184.87" y="190.60">(3)</text>
<circle onclick="fromCircle(40)" class="circle" cx="180.6438" cy="197.3567" r="2.9466" />
<text class="nLabel" x="180.64" y="192.36">2</text>
<text class="belong" x="180.64" y="202.36">(1, 3)</text>
<circle onclick="fromCircle(47)" class="circle" cx="234.7437" cy="205.7592" r="13.6628" />
<text class="nLabel" x="234.74" y="200.76">43</text>
<text class="belong" x="234.74" y="210.76">(1, 3, 4, 5, 6)</text>
<circle onclick="fromCircle(12)" class="circle" cx="205.7534" cy="178.6754" r="2.0836" />
<text class="nLabel" x="205.75" y="173.68">1</text>
<text class="belong" x="205.75" y="183.68">(3, 4)</text>
<circle onclick="fromCircle(14)" class="circle" cx="214.5208" cy="182.4191" r="2.0836" />
<text class="nLabel" x="214.52" y="177.42">1</text>
<text class="belong" x="214.52" y="187.42">(3, 4, 5)</text>
<circle onclick="fromCircle(15)" class="circle" cx="204.4449" cy="199.1422" r="13.5030" />
<text class="nLabel" x="204.44" y="194.14">42</text>
<text class="belong" x="204.44" y="204.14">(3, 4, 5, 6)</text>
<circle onclick="fromCircle(10)" class="circle" cx="226.0047" cy="180.6781" r="3.6088" />
<text class="nLabel" x="226.00" y="175.68">3</text>
<text class="belong" x="226.00" y="185.68">(3, 5)</text>
<circle onclick="fromCircle(43)" class="circle" cx="245.0688" cy="188.6338" r="2.0836" />
<text class="nLabel" x="245.07" y="183.63">1</text>
<text class="belong" x="245.07" y="193.63">(1, 3, 5, 6)</text>
<circle onclick="fromCircle(11)" class="circle" cx="236.5186" cy="185.3351" r="2.0836" />
<text class="nLabel" x="236.52" y="180.34">1</text>
<text class="belong" x="236.52" y="190.34">(3, 5, 6)</text>
<circle onclick="fromCircle(4)" class="circle" cx="277.8438" cy="181.0324" r="8.5907" />
<text class="nLabel" x="277.84" y="176.03">17</text>
<text class="belong" x="277.84" y="186.03">(4)</text>
<circle onclick="fromCircle(36)" class="circle" cx="261.9075" cy="189.1037" r="4.1671" />
<text class="nLabel" x="261.91" y="184.10">4</text>
<text class="belong" x="261.91" y="194.10">(1, 4)</text>
<circle onclick="fromCircle(54)" class="circle" cx="274.1891" cy="197.6949" r="2.0836" />
<text class="nLabel" x="274.19" y="192.69">1</text>
<text class="belong" x="274.19" y="202.69">(1, 2, 4, 5)</text>
<circle onclick="fromCircle(55)" class="circle" cx="318.0974" cy="225.7257" r="2.0836" />
<text class="nLabel" x="318.10" y="220.73">1</text>
<text class="belong" x="318.10" y="230.73">(1, 2, 4, 5, 6)</text>
<circle onclick="fromCircle(7)" class="circle" cx="299.1616" cy="196.6802" r="12.3265" />
<text class="nLabel" x="299.16" y="191.68">35</text>
<text class="belong" x="299.16" y="201.68">(4, 5, 6)</text>
<circle onclick="fromCircle(5)" class="circle" cx="318.5638" cy="199.8863" r="2.9466" />
<text class="nLabel" x="318.56" y="194.89">2</text>
<text class="belong" x="318.56" y="204.89">(4, 6)</text>
<circle onclick="fromCircle(37)" class="circle" cx="324.5470" cy="209.3320" r="4.1671" />
<text class="nLabel" x="324.55" y="204.33">4</text>
<text class="belong" x="324.55" y="214.33">(1, 4, 6)</text>
<circle onclick="fromCircle(53)" class="circle" cx="314.2309" cy="214.6654" r="3.6088" />
<text class="nLabel" x="314.23" y="209.67">3</text>
<text class="belong" x="314.23" y="219.67">(1, 2, 4, 6)</text>
<circle onclick="fromCircle(2)" class="circle" cx="361.0284" cy="207.2314" r="14.5849" />
<text class="nLabel" x="361.03" y="202.23">49</text>
<text class="belong" x="361.03" y="212.23">(5)</text>
<circle onclick="fromCircle(34)" class="circle" cx="340.6756" cy="214.8719" r="2.0836" />
<text class="nLabel" x="340.68" y="209.87">1</text>
<text class="belong" x="340.68" y="219.87">(1, 5)</text>
<circle onclick="fromCircle(59)" class="circle" cx="313.0132" cy="257.7531" r="2.0836" />
<text class="nLabel" x="313.01" y="252.75">1</text>
<text class="belong" x="313.01" y="262.75">(1, 2, 3, 5, 6)</text>
<circle onclick="fromCircle(3)" class="circle" cx="370.4528" cy="241.2312" r="16.0041" />
<text class="nLabel" x="370.45" y="236.23">59</text>
<text class="belong" x="370.45" y="246.23">(5, 6)</text>
<circle onclick="fromCircle(35)" class="circle" cx="338.2135" cy="221.8040" r="2.0836" />
<text class="nLabel" x="338.21" y="216.80">1</text>
<text class="belong" x="338.21" y="226.80">(1, 5, 6)</text>
<circle onclick="fromCircle(1)" class="circle" cx="205.8869" cy="313.5975" r="6.9104" />
<text class="nLabel" x="205.89" y="308.60">11</text>
<text class="belong" x="205.89" y="318.60">(6)</text>
<circle onclick="fromCircle(33)" class="circle" cx="114.8819" cy="265.8263" r="6.5888" />
<text class="nLabel" x="114.88" y="260.83">10</text>
<text class="belong" x="114.88" y="270.83">(1, 6)</text>
<circle onclick="fromCircle(49)" class="circle" cx="250.9879" cy="280.4790" r="2.9466" />
<text class="nLabel" x="250.99" y="275.48">2</text>
<text class="belong" x="250.99" y="285.48">(1, 2, 6)</text>
<g id="legendBox">
<rect class="p0 borderLine" x="500.00" y="50.00" width="30.00" height="15.00" />
<rect class="q0" x="500.00" y="50.00" width="30.00" height="15.00" />
<text class="legend" x="540.00" y="65.00">Group 1</text>
<rect class="p1 borderLine" x="500.00" y="90.00" width="30.00" height="15.00" />
<rect class="q1" x="500.00" y="90.00" width="30.00" height="15.00" />
<text class="legend" x="540.00" y="105.00">Group 2</text>
<rect class="p2 borderLine" x="500.00" y="130.00" width="30.00" height="15.00" />
<rect class="q2" x="500.00" y="130.00" width="30.00" height="15.00" />
<text class="legend" x="540.00" y="145.00">Group 3</text>
<rect class="p3 borderLine" x="500.00" y="170.00" width="30.00" height="15.00" />
<rect class="q3" x="500.00" y="170.00" width="30.00" height="15.00" />
<text class="legend" x="540.00" y="185.00">Group 4</text>
<rect class="p4 borderLine" x="500.00" y="210.00" width="30.00" height="15.00" />
<rect class="q4" x="500.00" y="210.00" width="30.00" height="15.00" />
<text class="legend" x="540.00" y="225.00">Group 5</text>
<rect class="p5 borderLine" x="500.00" y="250.00" width="30.00" height="15.00" />
<rect class="q5" x="500.00" y="250.00" width="30.00" height="15.00" />
<text class="legend" x="540.00" y="265.00">Group 6</text>
</g>
</svg>
